<svg id="Layer_1" data-name="Layer 1" xmlns="http://www.w3.org/2000/svg" viewBox="0 0 512 512"><defs><style>.cls-1{fill:#ff003d}</style></defs><path class="cls-1" d="M256 25a231.07 231.07 0 0189.91 443.86A231.07 231.07 0 01166.09 43.14 229.49 229.49 0 01256 25m0-25C114.62 0 0 114.62 0 256s114.62 256 256 256 256-114.62 256-256S397.38 0 256 0z"/><path class="cls-1" d="M366.36 169.36l-87 87 83.64 83.7-22.2 22.22-83.68-83.67-87.76 87.75-23.69-23.69 87.75-87.76-83.7-83.71 22.22-22.2 83.71 83.7 87-87z"/></svg>