<svg id="Layer_1" data-name="Layer 1" xmlns="http://www.w3.org/2000/svg" viewBox="0 0 512 512"><defs><style>.cls-1{fill:#ff003d;}</style></defs><title>error</title><path class="cls-1" d="M256,25a231.07,231.07,0,0,1,89.91,443.86A231.07,231.07,0,0,1,166.09,43.14,229.49,229.49,0,0,1,256,25m0-25C114.62,0,0,114.62,0,256S114.62,512,256,512,512,397.38,512,256,397.38,0,256,0Z"/><path class="cls-1" d="M366.36,169.36l-87,87L363,340.06,340.8,362.28l-83.68-83.67-87.76,87.75-23.69-23.69,87.75-87.76-83.7-83.71L171.94,149l83.71,83.7,87-87Z"/></svg>