<svg id="Layer_1" data-name="Layer 1" xmlns="http://www.w3.org/2000/svg" viewBox="0 0 512 512"><defs><style>.cls-1{fill:#00ffc7;}</style></defs><title>LogoRamm</title><path class="cls-1" d="M138.37,14c21.26,0,45,23.39,65.1,64.19,22.07,44.77,37.35,105.2,43,170.16,5.81,66.51.94,129.74-13.73,178.05-13.29,43.79-33.19,70-54.6,71.86-.84.07-1.7.11-2.55.11-21.26,0-45-23.4-65.1-64.19C88.46,389.38,73.18,329,67.49,264c-5.81-66.5-.94-129.73,13.73-178,13.29-43.8,33.19-70,54.6-71.86.84-.08,1.7-.11,2.55-.11h0m0-13c-1.23,0-2.46.05-3.68.16-56.59,5-92.47,123.14-80.15,264C66.6,402.91,120.33,511.34,175.63,511.34c1.23,0,2.46,0,3.68-.16,56.59-4.95,92.47-123.14,80.15-264C247.4,109.39,193.67,1,138.37,1Z"/><path class="cls-1" d="M259,13.15c21.49,0,43.6,24.36,60.66,66.83,18.82,46.85,29.19,109.41,29.19,176.17s-10.37,129.33-29.19,176.18C302.6,474.8,280.49,499.15,259,499.15s-43.6-24.35-60.66-66.82c-18.82-46.85-29.19-109.42-29.19-176.18S179.52,126.83,198.34,80C215.4,37.51,237.51,13.15,259,13.15m0-13c-56.8,0-102.85,114.62-102.85,256s46,256,102.85,256,102.85-114.61,102.85-256S315.8.15,259,.15Z"/><path class="cls-1" d="M373.64,1V14c.86,0,1.69,0,2.54.11,21.41,1.87,41.31,28.06,54.6,71.86,14.67,48.31,19.54,111.54,13.73,178-5.69,65-21,125.4-43,170.17-20.11,40.79-43.84,64.19-65.1,64.19-.86,0-1.7,0-2.55-.11-21.41-1.87-41.31-28.07-54.6-71.86-14.67-48.31-19.54-111.54-13.73-178,5.69-65,21-125.39,43-170.16C328.64,37.37,352.37,14,373.64,14V1m0,0c-55.3,0-109,108.43-121.09,246.22-12.32,140.85,23.56,259,80.15,264,1.23.11,2.45.16,3.68.16,55.3,0,109-108.44,121.09-246.22,12.32-140.85-23.56-259-80.15-264C376.08,1,374.86,1,373.63,1Z"/></svg>